<svg width="19" height="20" viewBox="0 0 19 20" fill="none" xmlns="http://www.w3.org/2000/svg">
<path d="M17.729 1.91698L17.779 2.07698L18.331 3.99898C18.381 4.17321 18.3662 4.35965 18.2894 4.52382C18.2125 4.68799 18.0788 4.81877 17.913 4.89198L17.817 4.92698L7.09 8.00198H18.25C18.4314 8.00229 18.6065 8.06832 18.7429 8.18783C18.8793 8.30733 18.9678 8.47223 18.992 8.65198L18.999 8.75198V17.251C18.999 17.9513 18.7319 18.6252 18.2521 19.1353C17.7723 19.6454 17.116 19.9532 16.417 19.996L16.249 20.001H3.75C3.04971 20.001 2.37579 19.7339 1.8657 19.2541C1.35561 18.7743 1.04778 18.118 1.005 17.419L1 17.25V8.85798L0.478001 7.03698C0.28508 6.36379 0.356244 5.64237 0.676978 5.01986C0.997712 4.39734 1.54385 3.92064 2.204 3.68698L2.364 3.63498L14.378 0.189976C15.0512 -0.00294533 15.7726 0.0682188 16.3951 0.388953C17.0176 0.709687 17.4943 1.25583 17.728 1.91598L17.729 1.91698ZM17.499 9.50198H2.5V17.251C2.5 17.855 2.929 18.359 3.498 18.475L3.622 18.495L3.75 18.501H16.25C16.5593 18.5009 16.8576 18.3861 17.0871 18.1789C17.3167 17.9716 17.4613 17.6866 17.493 17.379L17.499 17.251V9.50198ZM4.272 4.64898L2.776 5.07898C2.47888 5.16423 2.22389 5.35655 2.06026 5.6188C1.89663 5.88105 1.83597 6.19462 1.89 6.49898L1.92 6.62398L2.264 7.82498L2.559 7.73998L4.272 4.64898ZM9.028 3.28598L6.311 4.06498L4.597 7.15498L7.315 6.37698L9.028 3.28598ZM13.786 1.92098L11.068 2.70098L9.355 5.79098L12.071 5.01298L13.786 1.92098ZM15.633 1.68798L14.112 4.42798L16.681 3.69098L16.337 2.49098C16.2864 2.31338 16.197 2.14923 16.0752 2.01037C15.9535 1.87151 15.8024 1.7614 15.633 1.68798Z" fill="#1B2B3A"/>
</svg>
