<svg width="99" height="27" viewBox="0 0 99 27" fill="none" xmlns="http://www.w3.org/2000/svg">
<path d="M33.5797 8.87218L36.1966 17.0982H36.297L38.9192 8.87218H41.4568L37.7244 19.6992H34.7745L31.0368 8.87218H33.5797ZM47.6273 16.2418V11.5789H49.8794V19.6992H47.7172V18.2243H47.6326C47.4493 18.7001 47.1444 19.0825 46.718 19.3715C46.2951 19.6605 45.7787 19.805 45.169 19.805C44.6262 19.805 44.1487 19.6816 43.7363 19.4349C43.324 19.1882 43.0015 18.8375 42.7689 18.3829C42.5398 17.9282 42.4235 17.3837 42.4199 16.7493V11.5789H44.6721V16.3475C44.6756 16.8268 44.8042 17.2057 45.058 17.4841C45.3117 17.7626 45.6518 17.9018 46.0783 17.9018C46.3497 17.9018 46.6034 17.8401 46.8396 17.7168C47.0757 17.5899 47.266 17.4031 47.4105 17.1564C47.5586 16.9097 47.6308 16.6048 47.6273 16.2418ZM55.0838 19.8578C54.2485 19.8578 53.5295 19.6887 52.9268 19.3503C52.3276 19.0085 51.8659 18.5256 51.5417 17.9018C51.2174 17.2744 51.0553 16.5325 51.0553 15.6761C51.0553 14.8408 51.2174 14.1077 51.5417 13.4769C51.8659 12.846 52.3224 12.3543 52.9109 12.0019C53.503 11.6494 54.1974 11.4732 54.9939 11.4732C55.5296 11.4732 56.0283 11.5596 56.49 11.7323C56.9552 11.9014 57.3605 12.157 57.7059 12.4988C58.0549 12.8407 58.3262 13.2707 58.5201 13.7888C58.7139 14.3033 58.8108 14.906 58.8108 15.5968V16.2153H51.9541V14.8197H56.6909C56.6909 14.4954 56.6204 14.2082 56.4794 13.9579C56.3385 13.7077 56.1428 13.5121 55.8926 13.3711C55.6459 13.2266 55.3587 13.1544 55.0309 13.1544C54.689 13.1544 54.3859 13.2337 54.1216 13.3923C53.8608 13.5473 53.6564 13.757 53.5083 14.0214C53.3603 14.2822 53.2845 14.573 53.281 14.8937V16.2206C53.281 16.6224 53.355 16.9696 53.503 17.2621C53.6546 17.5546 53.8678 17.7802 54.1427 17.9388C54.4176 18.0974 54.7436 18.1767 55.1208 18.1767C55.371 18.1767 55.6001 18.1414 55.808 18.071C56.016 18.0005 56.1939 17.8947 56.342 17.7538C56.49 17.6128 56.6028 17.4401 56.6803 17.2357L58.7633 17.3731C58.6575 17.8736 58.4408 18.3106 58.113 18.6842C57.7888 19.0543 57.3693 19.3433 56.8548 19.5512C56.3437 19.7556 55.7534 19.8578 55.0838 19.8578ZM69.0811 8.87218V19.6992H67.1039L62.3935 12.8848H62.3142V19.6992H60.0251V8.87218H62.034L66.7074 15.6814H66.8026V8.87218H69.0811ZM74.333 19.8578C73.4977 19.8578 72.7788 19.6887 72.1761 19.3503C71.5769 19.0085 71.1152 18.5256 70.791 17.9018C70.4667 17.2744 70.3046 16.5325 70.3046 15.6761C70.3046 14.8408 70.4667 14.1077 70.791 13.4769C71.1152 12.846 71.5716 12.3543 72.1602 12.0019C72.7523 11.6494 73.4466 11.4732 74.2432 11.4732C74.7789 11.4732 75.2776 11.5596 75.7393 11.7323C76.2045 11.9014 76.6098 12.157 76.9552 12.4988C77.3041 12.8407 77.5755 13.2707 77.7694 13.7888C77.9632 14.3033 78.0601 14.906 78.0601 15.5968V16.2153H71.2033V14.8197H75.9402C75.9402 14.4954 75.8697 14.2082 75.7287 13.9579C75.5877 13.7077 75.3921 13.5121 75.1419 13.3711C74.8952 13.2266 74.6079 13.1544 74.2802 13.1544C73.9383 13.1544 73.6352 13.2337 73.3709 13.3923C73.1101 13.5473 72.9056 13.757 72.7576 14.0214C72.6096 14.2822 72.5338 14.573 72.5303 14.8937V16.2206C72.5303 16.6224 72.6043 16.9696 72.7523 17.2621C72.9039 17.5546 73.1171 17.7802 73.392 17.9388C73.6669 18.0974 73.9929 18.1767 74.37 18.1767C74.6203 18.1767 74.8494 18.1414 75.0573 18.071C75.2653 18.0005 75.4432 17.8947 75.5913 17.7538C75.7393 17.6128 75.8521 17.4401 75.9296 17.2357L78.0126 17.3731C77.9068 17.8736 77.6901 18.3106 77.3623 18.6842C77.038 19.0543 76.6186 19.3433 76.1041 19.5512C75.593 19.7556 75.0027 19.8578 74.333 19.8578ZM80.7758 19.6992L78.566 11.5789H80.8445L82.1027 17.0348H82.1767L83.4878 11.5789H85.7241L87.0563 17.0031H87.1251L88.3621 11.5789H90.6354L88.4309 19.6992H86.0466L84.6509 14.5923H84.5505L83.1548 19.6992H80.7758ZM98.2954 13.8945L96.2336 14.0214C96.1983 13.8452 96.1226 13.6866 96.0063 13.5456C95.89 13.4011 95.7366 13.2865 95.5463 13.202C95.3595 13.1138 95.1357 13.0698 94.8749 13.0698C94.526 13.0698 94.2317 13.1438 93.992 13.2918C93.7524 13.4363 93.6326 13.6302 93.6326 13.8734C93.6326 14.0672 93.7101 14.2311 93.8652 14.365C94.0202 14.4989 94.2863 14.6064 94.6634 14.6875L96.1331 14.9836C96.9226 15.1457 97.5112 15.4065 97.8989 15.766C98.2866 16.1255 98.4804 16.5977 98.4804 17.1828C98.4804 17.715 98.3236 18.182 98.0099 18.5838C97.6998 18.9856 97.2733 19.2992 96.7305 19.5248C96.1913 19.7468 95.5692 19.8578 94.8643 19.8578C93.7894 19.8578 92.933 19.634 92.295 19.1864C91.6606 18.7353 91.2888 18.1221 91.1795 17.3467L93.3947 17.2304C93.4616 17.5582 93.6237 17.8084 93.881 17.9811C94.1383 18.1503 94.4678 18.2348 94.8696 18.2348C95.2644 18.2348 95.5816 18.1591 95.8212 18.0075C96.0644 17.8524 96.1878 17.6533 96.1913 17.4101C96.1878 17.2057 96.1014 17.0383 95.9322 16.9079C95.7631 16.774 95.5023 16.6718 95.1498 16.6013L93.7436 16.3211C92.9506 16.1625 92.3602 15.8876 91.9725 15.4964C91.5884 15.1051 91.3963 14.6064 91.3963 14.0002C91.3963 13.4786 91.5373 13.0293 91.8192 12.6521C92.1047 12.275 92.5047 11.9843 93.0193 11.7798C93.5374 11.5754 94.1436 11.4732 94.8379 11.4732C95.8635 11.4732 96.6706 11.69 97.2592 12.1235C97.8513 12.557 98.1967 13.1473 98.2954 13.8945Z" fill="white"/>
<path d="M7.48047 13.3985C7.48465 14.6359 7.63962 15.8683 7.94197 17.0682H12.7654V10.0117H7.87498C7.61767 11.1224 7.48534 12.2584 7.48047 13.3985Z" fill="#00B67F"/>
<path d="M14.0312 10.0117V17.0682H18.8547C19.1696 15.8698 19.3371 14.6375 19.3534 13.3985C19.351 12.2587 19.2212 11.1227 18.9664 10.0117H14.0312Z" fill="#00B67F"/>
<path d="M13.3985 1.48871C11.043 1.48871 8.74039 2.1872 6.78183 3.49587C4.82328 4.80453 3.29678 6.66458 2.39535 8.84081C1.49393 11.017 1.25808 13.4117 1.71762 15.722C2.17716 18.0322 3.31146 20.1544 4.97707 21.82C6.64268 23.4856 8.7648 24.6199 11.0751 25.0794C13.3853 25.539 15.78 25.3031 17.9562 24.4017C20.1324 23.5003 21.9925 21.9738 23.3012 20.0152C24.6098 18.0566 25.3083 15.754 25.3083 13.3985C25.3083 10.2398 24.0535 7.21052 21.82 4.977C19.5865 2.74348 16.5572 1.48871 13.3985 1.48871ZM22.4946 18.3931H19.8001C19.2906 19.9882 18.5373 21.4947 17.567 22.8593C16.8509 23.1714 16.1018 23.4011 15.3339 23.5441C16.7091 22.0498 17.7675 20.2926 18.4453 18.3783H14.0387V23.7004H12.7807V18.3931H8.35178C9.02871 20.3101 10.0872 22.07 11.4632 23.5665C10.7111 23.425 9.97716 23.2003 9.27479 22.8965C8.30104 21.5205 7.54764 20.0011 7.04171 18.3931H4.30246C4.06467 17.9593 3.8582 17.5091 3.68464 17.0459H6.66208C6.38309 15.8499 6.23829 14.6265 6.23035 13.3985C6.23076 12.2602 6.35052 11.125 6.58765 10.0116H3.54321C3.69975 9.54975 3.88879 9.09953 4.10893 8.66435H6.94494C7.47708 6.89206 8.30233 5.22142 9.38644 3.72179C10.0739 3.43693 10.7902 3.22729 11.5228 3.09653C10.042 4.68577 8.92444 6.57797 8.24757 8.64202H12.7807V2.97743H14.0387V8.66435H18.5719C17.8962 6.60361 16.7813 4.71409 15.3041 3.1263C16.0355 3.24763 16.7517 3.44727 17.4404 3.72179C18.5182 5.21059 19.3408 6.86833 19.8745 8.62713H22.6807C22.9008 9.06232 23.0899 9.51254 23.2464 9.97442H20.2243C20.4666 11.0997 20.5888 12.2474 20.5891 13.3985C20.5852 14.6337 20.4429 15.8647 20.1648 17.0682H23.1422C22.9581 17.5246 22.7417 17.9674 22.4946 18.3931Z" fill="#00B67F"/>
</svg>
