<svg width="20" height="20" viewBox="0 0 20 20" fill="none" xmlns="http://www.w3.org/2000/svg">
<path d="M13.5 9.75C13.5 9.55109 13.421 9.36032 13.2803 9.21967C13.1397 9.07902 12.9489 9 12.75 9C12.5511 9 12.3603 9.07902 12.2197 9.21967C12.079 9.36032 12 9.55109 12 9.75V11.75C12 11.9489 12.079 12.1397 12.2197 12.2803C12.3603 12.421 12.5511 12.5 12.75 12.5C12.9489 12.5 13.1397 12.421 13.2803 12.2803C13.421 12.1397 13.5 11.9489 13.5 11.75V9.75ZM9.75 9C9.94891 9 10.1397 9.07902 10.2803 9.21967C10.421 9.36032 10.5 9.55109 10.5 9.75V11.75C10.5 11.9489 10.421 12.1397 10.2803 12.2803C10.1397 12.421 9.94891 12.5 9.75 12.5C9.55109 12.5 9.36032 12.421 9.21967 12.2803C9.07902 12.1397 9 11.9489 9 11.75V9.75C9 9.55109 9.07902 9.36032 9.21967 9.21967C9.36032 9.07902 9.55109 9 9.75 9ZM7.5 9.75C7.5 9.55109 7.42098 9.36032 7.28033 9.21967C7.13968 9.07902 6.94891 9 6.75 9C6.55109 9 6.36032 9.07902 6.21967 9.21967C6.07902 9.36032 6 9.55109 6 9.75V11.75C6 11.9489 6.07902 12.1397 6.21967 12.2803C6.36032 12.421 6.55109 12.5 6.75 12.5C6.94891 12.5 7.13968 12.421 7.28033 12.2803C7.42098 12.1397 7.5 11.9489 7.5 11.75V9.75ZM3.75 13.5C3.94891 13.5 4.13968 13.579 4.28033 13.7197C4.42098 13.8603 4.5 14.0511 4.5 14.25V16.75C4.5 16.9489 4.42098 17.1397 4.28033 17.2803C4.13968 17.421 3.94891 17.5 3.75 17.5C3.55109 17.5 3.36032 17.421 3.21967 17.2803C3.07902 17.1397 3 16.9489 3 16.75V14.25C3 14.0511 3.07902 13.8603 3.21967 13.7197C3.36032 13.579 3.55109 13.5 3.75 13.5ZM17 14.25C17 14.0511 16.921 13.8603 16.7803 13.7197C16.6397 13.579 16.4489 13.5 16.25 13.5C16.0511 13.5 15.8603 13.579 15.7197 13.7197C15.579 13.8603 15.5 14.0511 15.5 14.25V16.75C15.5 16.9489 15.579 17.1397 15.7197 17.2803C15.8603 17.421 16.0511 17.5 16.25 17.5C16.4489 17.5 16.6397 17.421 16.7803 17.2803C16.921 17.1397 17 16.9489 17 16.75V14.25ZM9.75 0H13.5C13.6326 0 13.7598 0.0526785 13.8536 0.146447C13.9473 0.240215 14 0.367392 14 0.5V2.5C14 2.63261 13.9473 2.75979 13.8536 2.85355C13.7598 2.94732 13.6326 3 13.5 3H10.5V4.018C12.2654 4.14442 13.9174 4.93493 15.1234 6.23038C16.3295 7.52583 17 9.23006 17 11H17.75C18.3467 11 18.919 11.2371 19.341 11.659C19.7629 12.081 20 12.6533 20 13.25V19.25C20 19.4489 19.921 19.6397 19.7803 19.7803C19.6397 19.921 19.4489 20 19.25 20H0.75C0.551088 20 0.360322 19.921 0.21967 19.7803C0.0790175 19.6397 0 19.4489 0 19.25V13.25C0 12.6533 0.237053 12.081 0.65901 11.659C1.08097 11.2371 1.65326 11 2.25 11H3C2.99998 9.31655 3.60648 7.68944 4.7084 6.41673C5.81031 5.14402 7.33387 4.31091 9 4.07V0.75C9 0.551088 9.07902 0.360322 9.21967 0.21967C9.36032 0.0790175 9.55109 0 9.75 0ZM10 5.5C8.54131 5.5 7.14236 6.07946 6.11091 7.11091C5.07946 8.14236 4.5 9.54131 4.5 11V11.75C4.5 11.9489 4.42098 12.1397 4.28033 12.2803C4.13968 12.421 3.94891 12.5 3.75 12.5H2.25C2.05109 12.5 1.86032 12.579 1.71967 12.7197C1.57902 12.8603 1.5 13.0511 1.5 13.25V18.5H7.5V15.75C7.5 15.5511 7.57902 15.3603 7.71967 15.2197C7.86032 15.079 8.05109 15 8.25 15H11.75C11.9489 15 12.1397 15.079 12.2803 15.2197C12.421 15.3603 12.5 15.5511 12.5 15.75V18.5H18.5V13.25C18.5 13.0511 18.421 12.8603 18.2803 12.7197C18.1397 12.579 17.9489 12.5 17.75 12.5H16.25C16.0511 12.5 15.8603 12.421 15.7197 12.2803C15.579 12.1397 15.5 11.9489 15.5 11.75V11C15.5 9.54131 14.9205 8.14236 13.8891 7.11091C12.8576 6.07946 11.4587 5.5 10 5.5ZM11 16.5H9V18.5H11V16.5Z" fill="#1B2B3A"/>
</svg>
