<svg width="22" height="16" viewBox="0 0 22 16" fill="none" xmlns="http://www.w3.org/2000/svg">
<path d="M14.9 0.999986C14.73 0.999986 14.58 1.08999 14.49 1.22999L14.42 1.37999L9.24 13.03C9.08 13.32 8.98 13.64 8.98 13.99C8.98 15.1 9.88 16 10.99 16C11.95 16 12.76 15.32 12.95 14.41L12.96 14.38L15.4 1.49999C15.4 1.21999 15.18 0.999986 14.9 0.999986ZM0 4.99999L2 6.99999C4.88 4.11999 8.79 2.91999 12.53 3.37999L13.72 0.699986C8.89 -0.160014 3.74 1.26999 0 4.99999ZM20 6.99999L22 4.99999C20.4188 3.41725 18.511 2.19888 16.41 1.42999L15.88 4.24999C17.38 4.86999 18.78 5.77999 20 6.99999ZM16 11L18 8.99999C17.2 8.19999 16.3 7.57999 15.34 7.10999L14.79 10.03C15.21 10.3 15.62 10.62 16 11ZM4 8.99999L6 11C7.09101 9.91408 8.50538 9.21216 10.03 8.99999L11.31 6.11999C8.68 6.03999 6.01 6.98999 4 8.99999Z" fill="#1B2B3A"/>
</svg>
